<?xml version="1.0" encoding="utf-8"?>
<!-- Generator: Adobe Illustrator 15.0.0, SVG Export Plug-In . SVG Version: 6.00 Build 0)  -->
<!DOCTYPE svg PUBLIC "-//W3C//DTD SVG 1.1//EN" "http://www.w3.org/Graphics/SVG/1.1/DTD/svg11.dtd">
<svg version="1.1" id="Layer_1" xmlns="http://www.w3.org/2000/svg" xmlns:xlink="http://www.w3.org/1999/xlink" x="0px" y="0px"
	 width="32px" height="28px" viewBox="0 0 32 28" enable-background="new 0 0 32 28" xml:space="preserve">
<path fill="#1A1A1A" d="M28.875,5.297h-7.984v1.937h7.984V5.297z M24.938,11.953c-0.938,0-1.696,0.273-2.279,0.82
	S21.751,14.062,21.688,15h6.375C27.875,12.969,26.834,11.953,24.938,11.953z M25.188,21.094c0.656,0,1.293-0.166,1.906-0.5
	c0.615-0.333,1.012-0.785,1.188-1.359h3.452c-1.041,3.199-3.267,4.799-6.672,4.799c-2.229,0-4.002-0.688-5.319-2.063
	s-1.978-3.183-1.978-5.422c0-2.167,0.68-3.966,2.039-5.398c1.358-1.432,3.111-2.148,5.258-2.148c1.438,0,2.689,0.354,3.758,1.062
	s1.865,1.64,2.392,2.797c0.526,1.157,0.789,2.45,0.789,3.875c0,0.178-0.011,0.423-0.03,0.733H21.689c0,1.156,0.299,2.05,0.896,2.681
	c0.6,0.631,1.466,0.945,2.604,0.944L25.188,21.094L25.188,21.094z M4.328,20.313h4.625c2.135,0,3.203-0.869,3.203-2.608
	c0-1.875-1.036-2.813-3.109-2.813H4.328V20.313L4.328,20.313z M4.328,11.922h4.391c0.813,0,1.456-0.19,1.93-0.57
	s0.711-0.971,0.711-1.773c0-1.5-0.99-2.25-2.969-2.25H4.329L4.328,11.922L4.328,11.922z M0,3.969h9.281
	c0.906,0,1.713,0.073,2.422,0.219c0.708,0.146,1.368,0.394,1.977,0.742c0.609,0.348,1.078,0.851,1.406,1.508
	s0.492,1.458,0.492,2.406c0,1.886-0.896,3.255-2.688,4.109c1.187,0.333,2.083,0.932,2.688,1.797
	c0.604,0.865,0.907,1.927,0.906,3.188c0,0.781-0.127,1.492-0.383,2.133c-0.256,0.642-0.599,1.181-1.031,1.617
	c-0.432,0.438-0.945,0.808-1.539,1.108c-0.594,0.302-1.224,0.521-1.891,0.656s-1.365,0.203-2.094,0.203h-9.547V3.967L0,3.969z"/>
</svg>
