<?xml version="1.0" encoding="utf-8"?>
<!-- Generator: Adobe Illustrator 15.0.0, SVG Export Plug-In . SVG Version: 6.00 Build 0)  -->
<!DOCTYPE svg PUBLIC "-//W3C//DTD SVG 1.1//EN" "http://www.w3.org/Graphics/SVG/1.1/DTD/svg11.dtd">
<svg version="1.1" id="Layer_1" xmlns="http://www.w3.org/2000/svg" xmlns:xlink="http://www.w3.org/1999/xlink" x="0px" y="0px"
	 width="28.08px" height="28.08px" viewBox="235.961 235.965 28.08 28.08" enable-background="new 235.961 235.965 28.08 28.08"
	 xml:space="preserve">
<g>
	<path fill="#1A1A1A" d="M264.031,245.569c-0.003-0.018-0.007-0.035-0.01-0.053c-0.006-0.034-0.013-0.067-0.021-0.101
		c-0.005-0.021-0.012-0.039-0.019-0.059c-0.01-0.029-0.019-0.06-0.031-0.088c-0.008-0.021-0.018-0.04-0.026-0.06
		c-0.013-0.027-0.026-0.054-0.041-0.079c-0.012-0.02-0.023-0.038-0.034-0.057c-0.017-0.024-0.033-0.049-0.052-0.073
		c-0.013-0.018-0.027-0.035-0.041-0.052c-0.02-0.022-0.039-0.045-0.061-0.065c-0.016-0.016-0.031-0.032-0.048-0.047
		c-0.021-0.021-0.045-0.039-0.068-0.058c-0.018-0.015-0.035-0.028-0.055-0.042c-0.007-0.004-0.013-0.01-0.02-0.015l-12.834-8.556
		c-0.405-0.27-0.933-0.27-1.338,0l-12.834,8.556c-0.006,0.005-0.013,0.011-0.02,0.015c-0.019,0.014-0.036,0.027-0.055,0.042
		c-0.023,0.019-0.046,0.037-0.068,0.058c-0.017,0.015-0.032,0.03-0.048,0.047c-0.021,0.021-0.041,0.043-0.06,0.065
		c-0.015,0.017-0.028,0.034-0.042,0.052c-0.018,0.023-0.035,0.048-0.051,0.073c-0.012,0.019-0.023,0.037-0.034,0.057
		c-0.015,0.025-0.028,0.052-0.041,0.079c-0.01,0.02-0.02,0.039-0.027,0.06c-0.012,0.028-0.021,0.059-0.031,0.088
		c-0.006,0.019-0.013,0.038-0.019,0.059c-0.009,0.033-0.015,0.066-0.021,0.101c-0.003,0.018-0.008,0.035-0.01,0.053
		c-0.007,0.052-0.012,0.104-0.012,0.157v8.556c0,0.053,0.004,0.105,0.012,0.158c0.002,0.017,0.007,0.034,0.01,0.052
		c0.006,0.033,0.012,0.067,0.021,0.101c0.006,0.021,0.013,0.039,0.019,0.059c0.01,0.029,0.02,0.059,0.031,0.089
		c0.008,0.02,0.018,0.039,0.027,0.059c0.013,0.027,0.026,0.054,0.041,0.08c0.011,0.019,0.022,0.037,0.034,0.056
		c0.016,0.024,0.033,0.049,0.051,0.073c0.014,0.019,0.027,0.035,0.042,0.052c0.019,0.022,0.038,0.045,0.06,0.065
		c0.016,0.016,0.031,0.032,0.048,0.047c0.022,0.021,0.045,0.04,0.068,0.058c0.019,0.015,0.036,0.028,0.055,0.042
		c0.007,0.004,0.014,0.01,0.02,0.015l12.834,8.556c0.202,0.135,0.436,0.203,0.669,0.203s0.467-0.068,0.67-0.203l12.833-8.556
		c0.007-0.005,0.013-0.011,0.02-0.015c0.02-0.014,0.037-0.027,0.055-0.042c0.023-0.018,0.047-0.037,0.068-0.058
		c0.017-0.015,0.032-0.031,0.048-0.047c0.021-0.021,0.041-0.043,0.061-0.065c0.014-0.017,0.028-0.033,0.041-0.052
		c0.019-0.024,0.035-0.048,0.052-0.073c0.011-0.019,0.022-0.037,0.034-0.056c0.015-0.026,0.028-0.053,0.041-0.08
		c0.009-0.02,0.019-0.039,0.026-0.059c0.013-0.029,0.021-0.06,0.031-0.089c0.007-0.02,0.014-0.038,0.019-0.059
		c0.01-0.033,0.016-0.067,0.021-0.101c0.003-0.018,0.007-0.035,0.01-0.052c0.007-0.053,0.011-0.105,0.011-0.158v-8.556
		C264.042,245.674,264.038,245.621,264.031,245.569z M251.208,239.426l9.454,6.303l-4.224,2.824l-5.23-3.499V239.426z
		 M248.794,239.426v5.628l-5.23,3.499l-4.223-2.824L248.794,239.426z M238.375,247.985l3.02,2.019l-3.02,2.02V247.985z
		 M248.794,260.583l-9.453-6.303l4.223-2.824l5.231,3.499L248.794,260.583L248.794,260.583z M250.001,252.859l-4.268-2.855
		l4.268-2.854l4.268,2.854L250.001,252.859z M251.208,260.583v-5.628l5.23-3.499l4.224,2.824L251.208,260.583z M261.628,252.023
		l-3.019-2.02l3.019-2.019V252.023z"/>
</g>
</svg>
