<?xml version="1.0" encoding="utf-8"?>
<!-- Generator: Adobe Illustrator 15.0.0, SVG Export Plug-In . SVG Version: 6.00 Build 0)  -->
<!DOCTYPE svg PUBLIC "-//W3C//DTD SVG 1.1//EN" "http://www.w3.org/Graphics/SVG/1.1/DTD/svg11.dtd">
<svg version="1.1" id="Layer_1" xmlns="http://www.w3.org/2000/svg" xmlns:xlink="http://www.w3.org/1999/xlink" x="0px" y="0px"
	 width="530.804px" height="214.688px" viewBox="35.891 190.563 530.804 214.688"
	 enable-background="new 35.891 190.563 530.804 214.688" xml:space="preserve">
<g id="logo-black">
	<g id="test-tube_1_">
		<path id="tube_1_" fill="#FFFFFF" d="M471,405.25L471,405.25c-3.125,0-6.188-0.563-9.125-1.688
			c-12.313-4.688-18.813-18.063-15.438-30.438l-0.125-0.063l0.813-2.125l62.563-162.5c0.938-2.375,0.5-8.125,0.063-11.313
			c-0.125-0.75-0.125-1.438,0.063-2.125l0.063-0.125c0.063-0.125,0.063-0.25,0.125-0.375c1-2.625,4.063-3.938,9.063-3.938
			c6,0,14.313,1.875,22.813,5.125c7.125,2.75,13.625,6.188,18.188,9.625c5.375,4.063,7.5,7.688,6.313,10.813
			c-0.063,0.125-0.125,0.25-0.188,0.375l-0.063,0.125c-0.313,0.625-0.75,1.125-1.313,1.563c-2.75,2.438-6.813,6.563-7.5,8.438
			L494,391.375l-0.125-0.063C489.438,399.813,480.75,405.25,471,405.25z M451.438,372l-0.188,0.438c-4,10.75,1.438,22.875,12.188,27
			c2.438,0.938,4.938,1.375,7.5,1.375c8.688,0,16.375-5.188,19.563-13.313l0.25-0.563L553,225.125c1.313-3.5,7.5-9.063,8.75-10.188
			l0.125-0.125c0.125-0.063,0.188-0.125,0.188-0.188l0.063-0.063c0.063-0.438-0.5-2.375-4.875-5.75
			c-4.188-3.188-10.25-6.375-17.063-9c-7.875-3.063-15.875-4.875-21.25-4.875c-3.563,0-4.75,0.75-4.938,1.125v0.063
			c0,0.063,0,0.125,0,0.25v0.063c0.125,0.938,1.313,9.25-0.313,13.563L451.438,372z"/>
		<path id="liquid_1_" fill="#FFFFFF" d="M531.5,269.063c0,0-8.625,9.938-16.5,13.5s-13.688,2.625-20.75,6.75
			s-10.625,9.875-10.625,9.875L454.875,374c-3.125,8.438,1.5,18.313,10.063,21.625s18.25-1.063,21.563-9.438l0,0L531.5,269.063z
			 M502.563,312.25c1.375-0.625,3,0,3.563,1.375c0.625,1.375,0,3-1.375,3.563c-1.375,0.625-3,0-3.563-1.375
			C500.5,314.438,501.188,312.813,502.563,312.25z M491,299.938c0.938-0.375,2,0,2.375,0.938s0,2-0.938,2.375s-2,0-2.375-0.938
			S490.125,300.313,491,299.938z M478.313,342.25c-1.375,0.625-3,0-3.563-1.375c-0.625-1.375,0-3,1.375-3.563
			c1.375-0.625,3,0,3.563,1.375C480.375,340.063,479.75,341.625,478.313,342.25z M480.875,332.438c-1.125-2.563,0-5.563,2.563-6.75
			c2.563-1.125,5.563,0,6.75,2.563c1.125,2.563,0,5.563-2.563,6.75C485,336.125,482,335,480.875,332.438z M487.375,358.375
			c0.938-0.375,2,0,2.375,0.938s0,2-0.938,2.375s-2,0-2.375-0.938C486.063,359.875,486.438,358.813,487.375,358.375z"/>
		
			<ellipse id="top_1_" transform="matrix(-0.9333 -0.359 0.359 -0.9333 964.5522 593.145)" fill="#FFFFFF" cx="537.347" cy="207.018" rx="17.375" ry="4.563"/>
	</g>
	<path id="jekyll-text" fill="#FFFFFF" d="M156.563,289.813c2.75,2.188,7.75,0.938,11.125-2.75c3.5-3.875,4.063-8.813,1.313-11.063
		c-2.75-2.188-7.75-0.938-11.125,2.938C154.313,282.875,153.688,287.625,156.563,289.813z M148.375,297c-0.75,0-2,1.313-0.938,1.813
		c1.5,0.563,2.188,1.813,2.188,3.688c-1.313,7.563-10.688,16.25-14.438,19.188c-0.938,0.938,0.375,2.938,1.313,2.188
		c2-1.625,6.25-4.938,9.75-9.375c-5.688,12.75-16.813,29.125-21.063,34.875c-16.625,23.063-41.875,44.25-59.25,44.25
		c-13.875,0-25.625-9.375-28.188-23.25c-0.188-1.5-2.188-1.813-1.813,0.188c3.125,19,17.75,26.313,35.438,26.313
		c19.375,0,42.125-14.063,54.625-28.375c20.25-23.25,33.438-49.938,29.875-65.063C154.5,297.75,150.563,296.813,148.375,297z
		 M272.875,347.563c5.313-1.313,9.75-4.25,9.75-8.875c0-0.438-0.938-0.438-0.938,0c0,2.75-3.125,5-6.625,5.563
		c-8.25,1.313-24.688-8.438-32.438-18.438c8.25,3.125,25.25-1.438,33.25-7.125c7.375-5.313,10.313-11.25,10.938-16.063
		c0.938-7.875-7.75-12.563-19.75-7.875c-7.75,3.125-17,9.938-26.563,22.688c10.125-16.813,30.063-44.063,49.625-61.563
		c23.813-21.188,37.625-17.125,16.25,5.313c-8.813,9.188-25.438,21.188-36.938,26.375c-3.5,1.5-1.813,3.5,0.75,2.375
		c12.188-5.313,28.375-16.438,38.188-25.625c28.938-27.813,4.813-48.813-27.313-19.375c-21.75,20.125-36,41.125-48.313,68.375
		c-4.25,5.125-7.375,9.375-11.313,12.75c-0.438,0.375-0.813,0.813-1.125,1.188c-10.625,9.125-27.375,21.438-37.813,21.625
		c-7.375,0.188-10.5-5.313-9.188-12.563c2-11.25,13.688-24.5,23.625-29.125c12.938-5.875,20.5,5.5,3.5,14.75
		c-6.438,3.313-14.25,5.125-17.375,5.125c-3.688,0-3.313,1.5-0.188,1.625c5.125,0.188,13.5-2,19-4.625
		c17.375-8.25,18.438-23.75-0.375-24.313c-20.5-0.75-45,16.813-44.813,38.75c0.188,9.938,8.125,15.313,19,15.313
		c18.125-0.188,34.313-14,47.5-26.063c1.875-1.563,3.75-3.313,5.563-5.125c-4.625,11.813-7,22.688-5.875,30.75
		c0.75,5.875,4.063,8.625,6.625,10.875c0.563,0.375,1.625,0,0.938-1.125c-3.875-4.625-2.75-18.313,2.563-31.5
		C237.438,340.375,254.75,351.625,272.875,347.563z M251.125,309.125c21.188-19,29.5-2,16.063,8.25
		c-7,5.313-20.875,9.375-25.25,6.813L241,323.625c-0.563-0.938-1.125-1.813-1.5-2.75C243,316.625,247.063,312.813,251.125,309.125z
		 M368.813,287.625c8.438,0.938,4.938-9.375-3.688-6.813c-3.875,1.125-7.563,8.438-10.313,14.938
		c-8.438,12.75-22.688,30-32.688,39.063c-8.813,7.563-17,9.563-7-4.625c4.063-5.688,9.188-11.813,12.188-17.875
		c7-15.313-7.938-22.125-19.938-12.938c-7,5.313-16.438,16.438-23.813,22.5c-2,1.625-1.5,4.063,0.563,2.375
		c5.875-4.75,16.25-15.688,25.063-22.125c7.375-5.688,10.313-2,6.063,2.75c-5.875,6.813-16.25,18.625-18.813,26.188
		c-3.688,11.25,0.75,16.25,8.063,16.25c10.125,0,25.25-15.875,35.438-28.375c3.313-4.25,7-9.188,10.125-14
		c-8.813,17.125-18.063,34.5-29.5,50.125c-16.25,22.125-36.563,38.75-55.75,38.75c-13.875,0-25.813-9.375-28.375-23.25
		c-0.188-1.5-2-1.813-1.813,0.188c3.125,19,17.75,26.313,35.438,26.313c19.375,0,38-11.25,51.063-25.063
		c26.375-27.875,29.563-59.188,37.625-76.688C362.563,287.625,366.063,287.25,368.813,287.625z M476.063,260.688
		c3.875-6.625,3.688-11.813-5.313-11.813c-6.813,0.188-19.188,4.938-24.875,9.375c-1.313,1.313-0.75,2,0.938,1.313
		c1.125-0.375,2.375-1.125,3.688-1.625c6.438-3.5,3.875,3.875,2.375,6.625c-7.75,13.5-21.375,32.438-28.563,41.875
		c-3.438,4.625-7.313,9.25-11.125,13.188c-6.938,6.563-20.625,18.25-30.938,22.125c-33.625,12.563,9.188-44.625,12.75-49.188
		c7.938-9.938,25.625-27.25,30.938-35.938c3.875-6.625,3.688-11.813-5.313-11.813c-6.813,0.188-19.188,4.938-24.875,9.375
		c-1.313,1.313-0.75,2,0.938,1.313c1.125-0.375,2.375-1.125,3.688-1.625c6.438-3.5,3.875,3.875,2.375,6.625
		c-7.75,13.5-21.375,32.438-28.563,41.875c-5.875,7.875-13.125,15.875-18.625,20.25c-2.188,1.813-0.938,3.5,1.313,2
		c2-1.313,4.938-4.25,8.25-7.75c-6.063,12.188-11.125,29.313,4.938,31.313C383.75,350.063,400,336.063,410.5,325.75
		c1.125-1.125,2.438-2.375,3.75-3.75c0.313-0.313,0.625-0.625,0.938-0.938c-6.063,12.188-11.063,29.25,5,31.25
		c17.563,2.375,39.313-21.188,47.75-29.813c1.625-1.625,1.125-4.438-1.625-1.625c-4.938,5.125-21.75,20.438-34,25.063
		c-33.625,12.563,9.188-44.625,12.75-49.188C453,286.75,470.75,269.438,476.063,260.688z"/>
</g>
<g id="logo-black-red" display="none">
	<g id="test-tube_2_" display="inline">
		<path id="tube_2_" d="M471,405.25L471,405.25c-3.125,0-6.188-0.563-9.125-1.688c-12.313-4.688-18.813-18.063-15.438-30.438
			l-0.125-0.063l0.813-2.125l62.563-162.5c0.938-2.375,0.5-8.125,0.063-11.313c-0.125-0.75-0.125-1.438,0.063-2.125l0.063-0.125
			c0.063-0.125,0.063-0.25,0.125-0.375c1-2.625,4.063-3.938,9.063-3.938c6,0,14.313,1.875,22.813,5.125
			c7.125,2.75,13.625,6.188,18.188,9.625c5.375,4.063,7.5,7.688,6.313,10.813c-0.063,0.125-0.125,0.25-0.188,0.375l-0.063,0.125
			c-0.313,0.625-0.75,1.125-1.313,1.563c-2.75,2.438-6.813,6.563-7.5,8.438L494,391.375l-0.125-0.063
			C489.438,399.813,480.75,405.25,471,405.25z M451.438,372l-0.188,0.438c-4,10.75,1.438,22.875,12.188,27
			c2.438,0.938,4.938,1.375,7.5,1.375c8.688,0,16.375-5.188,19.563-13.313l0.25-0.563L553,225.125c1.313-3.5,7.5-9.063,8.75-10.188
			l0.125-0.125c0.125-0.063,0.188-0.125,0.188-0.188l0.063-0.063c0.063-0.438-0.5-2.375-4.875-5.75
			c-4.188-3.188-10.25-6.375-17.063-9c-7.875-3.063-15.875-4.875-21.25-4.875c-3.563,0-4.75,0.75-4.938,1.125v0.063
			c0,0.063,0,0.125,0,0.25v0.063c0.125,0.938,1.313,9.25-0.313,13.563L451.438,372z"/>
		<path id="liquid_2_" fill="#CC0000" d="M531.5,269.063c0,0-8.625,9.938-16.5,13.5s-13.688,2.625-20.75,6.75
			s-10.625,9.875-10.625,9.875L454.875,374c-3.125,8.438,1.5,18.313,10.063,21.625s18.25-1.063,21.563-9.438l0,0L531.5,269.063z
			 M502.563,312.25c1.375-0.625,3,0,3.563,1.375c0.625,1.375,0,3-1.375,3.563c-1.375,0.625-3,0-3.563-1.375
			C500.5,314.438,501.188,312.813,502.563,312.25z M491,299.938c0.938-0.375,2,0,2.375,0.938s0,2-0.938,2.375s-2,0-2.375-0.938
			S490.125,300.313,491,299.938z M478.313,342.25c-1.375,0.625-3,0-3.563-1.375c-0.625-1.375,0-3,1.375-3.563
			c1.375-0.625,3,0,3.563,1.375C480.375,340.063,479.75,341.625,478.313,342.25z M480.875,332.438c-1.125-2.563,0-5.563,2.563-6.75
			c2.563-1.125,5.563,0,6.75,2.563c1.125,2.563,0,5.563-2.563,6.75C485,336.125,482,335,480.875,332.438z M487.375,358.375
			c0.938-0.375,2,0,2.375,0.938s0,2-0.938,2.375s-2,0-2.375-0.938C486.063,359.875,486.438,358.813,487.375,358.375z"/>
		
			<ellipse id="top_2_" transform="matrix(-0.9333 -0.359 0.359 -0.9333 964.5522 593.145)" cx="537.347" cy="207.018" rx="17.375" ry="4.563"/>
	</g>
	<path id="jekyll-text_1_" display="inline" d="M156.563,289.813c2.75,2.188,7.75,0.938,11.125-2.75
		c3.5-3.875,4.063-8.813,1.313-11.063c-2.75-2.188-7.75-0.938-11.125,2.938C154.313,282.875,153.688,287.625,156.563,289.813z
		 M148.375,297c-0.75,0-2,1.313-0.938,1.813c1.5,0.563,2.188,1.813,2.188,3.688c-1.313,7.563-10.688,16.25-14.438,19.188
		c-0.938,0.938,0.375,2.938,1.313,2.188c2-1.625,6.25-4.938,9.75-9.375c-5.688,12.75-16.813,29.125-21.063,34.875
		c-16.625,23.063-41.875,44.25-59.25,44.25c-13.875,0-25.625-9.375-28.188-23.25c-0.188-1.5-2.188-1.813-1.813,0.188
		c3.125,19,17.75,26.313,35.438,26.313c19.375,0,42.125-14.063,54.625-28.375c20.25-23.25,33.438-49.938,29.875-65.063
		C154.5,297.75,150.563,296.813,148.375,297z M272.875,347.563c5.313-1.313,9.75-4.25,9.75-8.875c0-0.438-0.938-0.438-0.938,0
		c0,2.75-3.125,5-6.625,5.563c-8.25,1.313-24.688-8.438-32.438-18.438c8.25,3.125,25.25-1.438,33.25-7.125
		c7.375-5.313,10.313-11.25,10.938-16.063c0.938-7.875-7.75-12.563-19.75-7.875c-7.75,3.125-17,9.938-26.563,22.688
		c10.125-16.813,30.063-44.063,49.625-61.563c23.813-21.188,37.625-17.125,16.25,5.313c-8.813,9.188-25.438,21.188-36.938,26.375
		c-3.5,1.5-1.813,3.5,0.75,2.375c12.188-5.313,28.375-16.438,38.188-25.625c28.938-27.813,4.813-48.813-27.313-19.375
		c-21.75,20.125-36,41.125-48.313,68.375c-4.25,5.125-7.375,9.375-11.313,12.75c-0.438,0.375-0.813,0.813-1.125,1.188
		c-10.625,9.125-27.375,21.438-37.813,21.625c-7.375,0.188-10.5-5.313-9.188-12.563c2-11.25,13.688-24.5,23.625-29.125
		c12.938-5.875,20.5,5.5,3.5,14.75c-6.438,3.313-14.25,5.125-17.375,5.125c-3.688,0-3.313,1.5-0.188,1.625
		c5.125,0.188,13.5-2,19-4.625c17.375-8.25,18.438-23.75-0.375-24.313c-20.5-0.75-45,16.813-44.813,38.75
		c0.188,9.938,8.125,15.313,19,15.313c18.125-0.188,34.313-14,47.5-26.063c1.875-1.563,3.75-3.313,5.563-5.125
		c-4.625,11.813-7,22.688-5.875,30.75c0.75,5.875,4.063,8.625,6.625,10.875c0.563,0.375,1.625,0,0.938-1.125
		c-3.875-4.625-2.75-18.313,2.563-31.5C237.438,340.375,254.75,351.625,272.875,347.563z M251.125,309.125
		c21.188-19,29.5-2,16.063,8.25c-7,5.313-20.875,9.375-25.25,6.813L241,323.625c-0.563-0.938-1.125-1.813-1.5-2.75
		C243,316.625,247.063,312.813,251.125,309.125z M368.813,287.625c8.438,0.938,4.938-9.375-3.688-6.813
		c-3.875,1.125-7.563,8.438-10.313,14.938c-8.438,12.75-22.688,30-32.688,39.063c-8.813,7.563-17,9.563-7-4.625
		c4.063-5.688,9.188-11.813,12.188-17.875c7-15.313-7.938-22.125-19.938-12.938c-7,5.313-16.438,16.438-23.813,22.5
		c-2,1.625-1.5,4.063,0.563,2.375c5.875-4.75,16.25-15.688,25.063-22.125c7.375-5.688,10.313-2,6.063,2.75
		c-5.875,6.813-16.25,18.625-18.813,26.188c-3.688,11.25,0.75,16.25,8.063,16.25c10.125,0,25.25-15.875,35.438-28.375
		c3.313-4.25,7-9.188,10.125-14c-8.813,17.125-18.063,34.5-29.5,50.125c-16.25,22.125-36.563,38.75-55.75,38.75
		c-13.875,0-25.813-9.375-28.375-23.25c-0.188-1.5-2-1.813-1.813,0.188c3.125,19,17.75,26.313,35.438,26.313
		c19.375,0,38-11.25,51.063-25.063c26.375-27.875,29.563-59.188,37.625-76.688C362.563,287.625,366.063,287.25,368.813,287.625z
		 M476.063,260.688c3.875-6.625,3.688-11.813-5.313-11.813c-6.813,0.188-19.188,4.938-24.875,9.375c-1.313,1.313-0.75,2,0.938,1.313
		c1.125-0.375,2.375-1.125,3.688-1.625c6.438-3.5,3.875,3.875,2.375,6.625c-7.75,13.5-21.375,32.438-28.563,41.875
		c-3.438,4.625-7.313,9.25-11.125,13.188c-6.938,6.563-20.625,18.25-30.938,22.125c-33.625,12.563,9.188-44.625,12.75-49.188
		c7.938-9.938,25.625-27.25,30.938-35.938c3.875-6.625,3.688-11.813-5.313-11.813c-6.813,0.188-19.188,4.938-24.875,9.375
		c-1.313,1.313-0.75,2,0.938,1.313c1.125-0.375,2.375-1.125,3.688-1.625c6.438-3.5,3.875,3.875,2.375,6.625
		c-7.75,13.5-21.375,32.438-28.563,41.875c-5.875,7.875-13.125,15.875-18.625,20.25c-2.188,1.813-0.938,3.5,1.313,2
		c2-1.313,4.938-4.25,8.25-7.75c-6.063,12.188-11.125,29.313,4.938,31.313C383.75,350.063,400,336.063,410.5,325.75
		c1.125-1.125,2.438-2.375,3.75-3.75c0.313-0.313,0.625-0.625,0.938-0.938c-6.063,12.188-11.063,29.25,5,31.25
		c17.563,2.375,39.313-21.188,47.75-29.813c1.625-1.625,1.125-4.438-1.625-1.625c-4.938,5.125-21.75,20.438-34,25.063
		c-33.625,12.563,9.188-44.625,12.75-49.188C453,286.75,470.75,269.438,476.063,260.688z"/>
</g>
</svg>
