<?xml version="1.0" encoding="utf-8"?>
<!-- Generator: Adobe Illustrator 15.0.0, SVG Export Plug-In . SVG Version: 6.00 Build 0)  -->
<!DOCTYPE svg PUBLIC "-//W3C//DTD SVG 1.1//EN" "http://www.w3.org/Graphics/SVG/1.1/DTD/svg11.dtd">
<svg version="1.1" id="Layer_1" xmlns="http://www.w3.org/2000/svg" xmlns:xlink="http://www.w3.org/1999/xlink" x="0px" y="0px"
	 width="523.59px" height="128.25px" viewBox="0 0 523.59 128.25" enable-background="new 0 0 523.59 128.25" xml:space="preserve">
<path fill="#FFFFFF" d="M223.9,46.171l0.001-0.005l-3.352,11.88L223.9,46.171L223.9,46.171z"/>
<path fill="#FFFFFF" d="M241.14,71.962l-3.694-0.022L241.14,71.962z"/>
<path fill="#FFFFFF" d="M240.19,89.703h0.004l-22.131,0.08L240.19,89.703L240.19,89.703z"/>
<path fill="#FFFFFF" d="M244.83,71.984l-3.695-0.022L244.83,71.984z"/>
<path fill="#FFFFFF" d="M242.13,88.195l3.855-14.702l-3.855,14.705V88.195L242.13,88.195z"/>
<path fill="#FFFFFF" d="M323.61,20.49l-7.182,33.76L323.61,20.49z"/>
<path fill="#FFFFFF" d="M305.15,20.49l-5.452,25.22l5.452-25.222V20.49z"/>
<path fill="#FFFFFF" d="M322.38,18.971h-15.355c-0.853,0-1.698,0.684-1.88,1.516l-5.452,25.222l-5.452,25.223
	c-0.18,0.832-1.025,1.514-1.877,1.514h-9.317h-1.552c-10.753,0-9.51-7.438-7.307-17.627c0.021-0.103,0.044-0.203,0.065-0.308
	l0.241-1.284c0.016-0.083,0.032-0.166,0.046-0.242l0.491-2.615l0.525-2.803c0.16-0.845,0.402-2.08,0.562-2.856l2.478-12.109
	l2.48-12.109c0.172-0.835-0.388-1.521-1.24-1.521h-15.762c-0.852,0-1.695,0.686-1.87,1.519l-3.389,16.079l-3.389,16.077
	c-0.003,0.007-0.004,0.017-0.005,0.024l-0.315,1.494c-3.904,17.822-2.869,34.817,18.347,35.349c0.347,0.01,0.615,0.013,0.615,0.013
	h33.302c0.853,0,1.696-0.685,1.874-1.519l7.182-33.757l7.182-33.76C323.785,19.655,323.232,18.972,322.38,18.971L322.38,18.971z"/>
<path fill="#FFFFFF" d="M383.64,72.621c0.854,0,1.411,0.684,1.24,1.519l-1.491,7.288"/>
<path fill="#FFFFFF" d="M381.9,88.719l1.49-7.292l-1.492,7.294C381.898,88.719,381.899,88.719,381.9,88.719L381.9,88.719z"/>
<path fill="#FFFFFF" d="M380.03,90.253c0.002,0,0.005-0.002,0.007-0.002c-4.52,0.036-18.1,0.14-28.306,0.14
	C364.153,90.391,380.029,90.254,380.03,90.253L380.03,90.253z"/>
<path fill="#FFFFFF" d="M342.57,63.234c-0.013-0.798,0.896-2.173,1.749-2.173l-1.918-0.032
	C341.537,69.721,342.57,63.234,342.57,63.234L342.57,63.234z"/>
<path fill="#FFFFFF" d="M353.13,90.387c-0.098,0-0.197,0-0.295,0.002C352.933,90.387,353.032,90.387,353.13,90.387z"/>
<path fill="#FFFFFF" d="M383.64,72.621c0.854,0,1.411,0.684,1.24,1.519l-1.491,7.288l-0.243,1.188"/>
<path fill="#FFFFFF" d="M360.4,90.37h-0.063H360.4z"/>
<path fill="#FFFFFF" d="M356.63,90.382h-0.219H356.63z"/>
<path fill="#FFFFFF" d="M355.48,90.385c-0.122,0-0.242,0-0.361,0.002C355.238,90.385,355.358,90.385,355.48,90.385z"/>
<path fill="#FFFFFF" d="M354.31,90.387h-0.317H354.31z"/>
<path fill="#FFFFFF" d="M356.41,90.382c-0.312,0-0.623,0.002-0.931,0.002C355.787,90.384,356.099,90.382,356.41,90.382z"/>
<path fill="#FFFFFF" d="M360.34,90.37c-1.242,0.005-2.482,0.01-3.705,0.013C357.857,90.381,359.099,90.375,360.34,90.37z"/>
<path fill="#FFFFFF" d="M380.04,90.25L380.04,90.25c-3.311,0.027-11.489,0.088-19.646,0.119
	C368.547,90.34,376.727,90.277,380.04,90.25z"/>
<path fill="#FFFFFF" d="M381.9,88.723l1.248-6.106l-1.25,6.11C381.898,88.725,381.899,88.725,381.9,88.723L381.9,88.723z"/>
<path fill="#FFFFFF" d="M355.12,90.387h-0.811H355.12z"/>
<path fill="#FFFFFF" d="M352.83,90.389h-1.097H352.83z"/>
<path fill="#FFFFFF" d="M353.99,90.387h-0.864H353.99z"/>
<path fill="#FFFFFF" d="M129.36,63.417l2.385-10.574l-2.727,12.087l-2.617,12.313l2.294-10.793
	C128.872,65.614,129.172,64.25,129.36,63.417L129.36,63.417z"/>
<path fill="#FFFFFF" d="M157.91,18.793h-16.864c-0.853,0-1.704,0.681-1.895,1.511l-1.599,7.058l-1.599,7.061
	c-0.188,0.83,0.355,1.511,1.208,1.511h16.995c0.852,0,1.699-0.681,1.882-1.514l1.545-7.058l1.545-7.053v-0.002
	C159.312,19.475,158.764,18.793,157.91,18.793L157.91,18.793z"/>
<path fill="#FFFFFF" d="M154.24,42.272V42.27l-4.946,22.882L154.24,42.272z"/>
<path fill="#FFFFFF" d="M105.25,118.09c0,0,8.501,0.109,13.905,0.109c-4.105,0-10.885-0.075-13.912-0.111
	C105.246,118.088,105.248,118.09,105.25,118.09L105.25,118.09z"/>
<path fill="#FFFFFF" d="M134.13,42.269l-2.388,10.574L134.13,42.269z"/>
<path fill="#FFFFFF" d="M153.02,40.756h-16.997c-0.852,0-1.704,0.681-1.892,1.514l-2.388,10.574l-2.385,10.574
	c-0.188,0.832-0.488,2.197-0.665,3.031l-2.294,10.794l-2.292,10.793c-0.178,0.832-0.544,2.178-0.818,2.985
	c0,0-3.175,9.448-8.513,9.341c-0.227-0.005-0.448-0.007-0.667-0.013c-2.586-0.049-4.619-0.085-4.619-0.085h-0.004
	c-0.851-0.013-1.707,0.651-1.905,1.479l-1.763,7.41l-1.761,7.406c-0.198,0.828,0.337,1.512,1.184,1.526
	c3.028,0.036,9.807,0.112,13.912,0.112c13.334,0,20.363-7.388,24.869-28.646l5.273-24.399l4.946-22.883
	C154.421,41.438,153.871,40.756,153.02,40.756L153.02,40.756z"/>
<path fill="#FFFFFF" d="M394.47,89.525c-0.852,0-1.404-0.684-1.226-1.52l12.786-59.89"/>
<path fill="#FFFFFF" d="M412.24,88.004l5.171-25.562L412.24,88.004z"/>
<path fill="#FFFFFF" d="M393.43,88.766c-0.104-0.417-0.043-1.439,0.139-2.275l6.067-28.428l-6.393,29.944
	c-0.18,0.835,0.374,1.519,1.226,1.519h1.553C395.168,89.525,393.532,89.184,393.43,88.766L393.43,88.766z"/>
<path fill="#FFFFFF" d="M411.23,89.184c-0.464,0.188-1.543,0.342-2.396,0.342h1.553c0.852,0,1.689-0.684,1.857-1.521l0.308-1.519
	C412.383,87.32,411.695,88.995,411.23,89.184L411.23,89.184z"/>
<path fill="#FFFFFF" d="M414.83,75.223l2.282-11.282c-0.001,0.007-0.002,0.017-0.004,0.022L414.83,75.223L414.83,75.223z"/>
<path fill="#FFFFFF" d="M465.28,32.128l0.704,2.91c0.194,0.833-0.345,1.509-1.195,1.511"/>
<path fill="#FFFFFF" d="M412.55,86.486l2.276-11.262L412.55,86.486z"/>
<path fill="#FFFFFF" d="M464.58,29.147l0.697,2.981L464.58,29.147z"/>
<path fill="#FFFFFF" d="M417.11,63.942c0.169-0.835,0.45-2.188,0.627-3.015l2.438-11.421l-2.761,12.937L417.11,63.942L417.11,63.942
	z"/>
<path fill="#FFFFFF" d="M406.24,27.135c-0.17,0.806-0.387,1.824-0.531,2.498l-6.068,28.43l6.393-29.946L406.24,27.135L406.24,27.135
	z"/>
<path fill="#FFFFFF" d="M465.98,35.038l-0.705-2.91l-0.696-2.981l-0.354-1.509c-1.38-5.364-5.434-8.459-14.232-8.459l-13.7-0.015
	l-12.617-0.015h-1.083h-13.113c-0.853,0-1.696,0.681-1.872,1.516h-0.001l-0.627,2.966l-0.741,3.503l-0.206,0.981l-6.393,29.946
	l-6.068,28.428c-0.181,0.836-0.242,1.858-0.138,2.275c0.103,0.418,1.738,0.76,2.591,0.76h12.809c0.853,0,1.932-0.154,2.396-0.342
	c0.466-0.188,1.152-1.863,1.322-2.698l2.276-11.262l2.279-11.26c0.001-0.005,0.002-0.015,0.004-0.022l0.304-1.499l2.762-12.937
	l2.438-11.426c0.181-0.83,1.021-1.509,1.872-1.511l40.3-0.02C465.637,36.547,466.175,35.87,465.98,35.038L465.98,35.038z"/>
<path fill="#FFFFFF" d="M517.86,8.725c-0.854,0.006-2.249,0.011-3.103,0.011h-12.898c-0.854,0-1.946,0.576-2.427,1.28
	l-28.523,41.787c-0.482,0.706-1.031,0.601-1.221-0.229l-2.099-9.207c-0.188-0.833-1.043-1.511-1.896-1.511h-18.337
	c-0.854,0-1.358,0.669-1.125,1.489l8.216,28.784c0.234,0.82,0.252,2.168,0.041,2.994l-3.582,13.931
	c-0.212,0.827,0.313,1.504,1.166,1.504h18.123c0.852,0,1.724-0.677,1.935-1.504l3.583-13.931c0.211-0.826,0.805-2.061,1.318-2.742
	l46.306-61.459c0.515-0.681,0.236-1.235-0.616-1.229L517.86,8.725L517.86,8.725z"/>
<path fill="#FFFFFF" d="M372.18,44.774l-0.001-0.017c-0.107,0.925-0.96,1.604-1.813,1.604h-23.248c-0.803,0-1.212-0.547-1.094-1.221
	c0.007-0.02,0.01-0.037,0.022-0.054c0,0-0.009,0.002-0.015,0.007c0.005-0.027,0.005-0.051,0.012-0.078c0,0,0.044-0.164,0.106-0.396
	c2.221-5.903,6.743-9.778,15.243-9.778C370.963,34.842,372.831,39.518,372.18,44.774L372.18,44.774z M365.36,17.94
	c-29.842,0-36.912,18.113-40.88,36.394c-3.967,18.633-3.625,36.055,27.254,36.055h1.096c0.098-0.002,0.198-0.002,0.295-0.002h0.865
	h0.316h0.811c0.12-0.002,0.24-0.002,0.361-0.002c0.309,0,0.619-0.002,0.931-0.002h0.219c1.222-0.002,2.462-0.008,3.704-0.012h0.063
	c8.155-0.032,16.334-0.094,19.647-0.12c0.847-0.013,1.676-0.696,1.851-1.523l1.25-6.11l0.243-1.189l1.491-7.287
	c0.171-0.836-0.387-1.52-1.24-1.52h-27.761c-11.041,0-14.32-2.934-13.112-11.56h44.377l-0.004,0.005c0.012,0,0.021-0.005,0.03-0.005
	c0.706-0.013,1.357-0.498,1.616-1.145c0.049-0.125,0.091-0.254,0.107-0.388l-0.005,0.005c6.59-24.854,4.7-41.592-23.528-41.592
	L365.36,17.94z"/>
<path fill="#FFFFFF" d="M224.32,44.679l-0.42,1.487c0,0.005-0.001,0.005-0.001,0.005l-3.351,11.875l-3.35,11.873
	c-0.232,0.82-1.118,1.491-1.973,1.491H197.49c-13.453,0-16.729-10.521-13.453-26.042c3.275-15.874,9.697-25.742,22.938-26.741
	C225.069,17.263,228.689,29.989,224.32,44.679L224.32,44.679z M236.483,70.497c0,0,8.362-20.303,10.261-32.031
	C249.334,22.767,241.474,0,211.114,0c-30.187,0-43.295,21.737-48.297,45.367c-5.001,23.801,1.552,44.675,31.567,44.504l23.679-0.088
	l22.131-0.08c0.852-0.008,1.724-0.684,1.941-1.507l3.855-14.705c0.215-0.825-0.306-1.504-1.158-1.509l-3.695-0.021l-3.694-0.022
	c-0.725-0.005-1.14-0.474-1.052-1.097c0.016-0.111,0.042-0.227,0.09-0.346L236.483,70.497z"/>
<path fill="#FFFFFF" d="M385.92,56.908c0,0.562-0.455,1.018-1.018,1.018c-0.562,0-1.019-0.457-1.019-1.018s0.457-1.016,1.019-1.016
	C385.465,55.893,385.92,56.347,385.92,56.908z"/>
<path fill="#FFFFFF" d="M5.979,30.509c-8.335,11.98-7.297,27.566-0.93,40.296c0.151,0.305,0.31,0.605,0.466,0.905
	c0.1,0.19,0.194,0.386,0.298,0.573c0.059,0.112,0.125,0.223,0.186,0.33c0.108,0.203,0.22,0.396,0.332,0.594
	c0.198,0.349,0.4,0.695,0.608,1.042c0.115,0.19,0.228,0.381,0.347,0.571c0.229,0.371,0.465,0.737,0.706,1.104
	c0.1,0.156,0.198,0.313,0.3,0.464c0.332,0.495,0.671,0.989,1.021,1.475c0.009,0.013,0.019,0.026,0.029,0.039
	c0.055,0.077,0.116,0.153,0.172,0.231c0.303,0.418,0.615,0.83,0.931,1.238c0.116,0.148,0.233,0.298,0.351,0.446
	c0.282,0.354,0.569,0.706,0.86,1.058c0.109,0.131,0.219,0.264,0.329,0.393c0.392,0.461,0.791,0.92,1.199,1.369
	c0.007,0.008,0.017,0.018,0.024,0.025c0.017,0.02,0.032,0.031,0.046,0.051c0.398,0.435,0.806,0.859,1.218,1.284
	c0.128,0.132,0.259,0.264,0.391,0.394c0.32,0.322,0.645,0.639,0.973,0.954c0.133,0.127,0.265,0.257,0.398,0.378
	c0.438,0.413,0.881,0.818,1.333,1.214c0.008,0.007,0.014,0.013,0.021,0.017c0.077,0.068,0.156,0.133,0.232,0.198
	c0.398,0.345,0.803,0.687,1.211,1.022c0.166,0.135,0.334,0.267,0.501,0.4c0.333,0.267,0.67,0.53,1.01,0.789
	c0.179,0.137,0.359,0.273,0.54,0.41c0.375,0.275,0.752,0.547,1.133,0.813c0.139,0.101,0.273,0.198,0.413,0.293
	c0.039,0.027,0.074,0.055,0.113,0.081c0.361,0.249,0.731,0.488,1.1,0.728c0.159,0.105,0.316,0.215,0.476,0.317
	c0.566,0.358,1.141,0.713,1.722,1.055c0.158,0.091,0.317,0.179,0.476,0.269c0.427,0.247,0.857,0.488,1.292,0.726
	c0.236,0.127,0.478,0.246,0.715,0.368c0.308,0.161,0.613,0.324,0.925,0.48c0.071,0.035,0.144,0.069,0.214,0.104
	c0.125,0.061,0.252,0.119,0.378,0.183c0.484,0.231,0.973,0.459,1.466,0.679c0.105,0.047,0.206,0.093,0.31,0.139
	c0.565,0.247,1.135,0.484,1.71,0.711c0.138,0.057,0.277,0.109,0.417,0.164c0.532,0.205,1.072,0.407,1.614,0.598
	c0.068,0.024,0.134,0.047,0.203,0.07c0.594,0.208,1.195,0.4,1.799,0.589c0.144,0.042,0.289,0.088,0.435,0.13
	c0.615,0.186,1.223,0.407,1.858,0.524c40.31,7.351,52.019-24.224,52.019-24.224C82.035,87.38,64.58,90.76,48.041,86.997
	c-0.626-0.142-1.234-0.337-1.846-0.518c-0.155-0.046-0.308-0.093-0.46-0.14c-0.597-0.183-1.189-0.375-1.777-0.578
	c-0.081-0.029-0.162-0.059-0.244-0.088c-0.527-0.186-1.048-0.381-1.567-0.581c-0.146-0.059-0.293-0.114-0.439-0.173
	c-0.569-0.225-1.134-0.459-1.692-0.703c-0.115-0.049-0.225-0.101-0.338-0.149c-0.48-0.218-0.955-0.437-1.427-0.664
	c-0.137-0.065-0.273-0.13-0.413-0.198c-0.371-0.181-0.738-0.373-1.104-0.562c-0.245-0.129-0.494-0.251-0.737-0.386
	c-0.447-0.239-0.886-0.488-1.323-0.742c-0.148-0.083-0.298-0.163-0.447-0.249c-0.581-0.342-1.155-0.696-1.723-1.056
	c-0.157-0.1-0.31-0.207-0.465-0.31c-0.412-0.266-0.822-0.536-1.226-0.815c-0.134-0.09-0.263-0.188-0.395-0.277
	c-0.39-0.275-0.776-0.555-1.159-0.838c-0.174-0.129-0.345-0.26-0.514-0.389c-0.351-0.269-0.7-0.539-1.046-0.817
	c-0.156-0.124-0.313-0.249-0.466-0.374c-0.439-0.361-0.874-0.725-1.303-1.098c-0.045-0.039-0.094-0.078-0.143-0.12
	c-0.464-0.407-0.919-0.825-1.37-1.245c-0.131-0.125-0.258-0.246-0.386-0.371c-0.333-0.317-0.662-0.637-0.984-0.965
	c-0.129-0.129-0.259-0.256-0.386-0.385c-0.41-0.42-0.813-0.846-1.208-1.277c-0.02-0.021-0.04-0.041-0.06-0.063
	c-0.417-0.456-0.825-0.923-1.225-1.394c-0.108-0.13-0.213-0.254-0.321-0.381c-0.298-0.359-0.593-0.723-0.881-1.09
	c-0.108-0.131-0.216-0.267-0.323-0.402c-0.347-0.45-0.686-0.899-1.018-1.355c-9.182-12.524-12.481-29.8-5.142-43.987"/>
<path fill="#FFFFFF" d="M31.852,20.416c-6.028,8.674-5.701,20.286-0.999,29.46c0.789,1.538,1.675,3.03,2.666,4.451
	c0.903,1.294,1.904,2.834,3.103,3.875c0.435,0.479,0.889,0.945,1.353,1.404c0.117,0.12,0.237,0.234,0.356,0.352
	c0.45,0.437,0.908,0.867,1.382,1.284c0.02,0.015,0.037,0.034,0.056,0.049c0.005,0.005,0.01,0.007,0.013,0.013
	c0.523,0.459,1.064,0.901,1.614,1.335c0.122,0.093,0.243,0.19,0.366,0.286c0.551,0.422,1.112,0.837,1.688,1.233
	c0.018,0.012,0.032,0.024,0.049,0.037c0.254,0.176,0.513,0.339,0.77,0.508c0.124,0.08,0.241,0.166,0.365,0.241
	c0.411,0.264,0.828,0.521,1.251,0.767c0.06,0.037,0.119,0.068,0.177,0.103c0.365,0.21,0.735,0.417,1.106,0.618
	c0.129,0.072,0.261,0.137,0.393,0.205c0.256,0.134,0.513,0.271,0.774,0.4c0.039,0.019,0.079,0.036,0.117,0.053
	c0.531,0.262,1.067,0.514,1.614,0.752c0.117,0.052,0.238,0.098,0.356,0.146c0.437,0.186,0.879,0.367,1.323,0.537
	c0.188,0.071,0.378,0.14,0.566,0.208c0.403,0.149,0.807,0.286,1.215,0.423c0.184,0.059,0.365,0.119,0.549,0.176
	c0.58,0.18,1.152,0.407,1.756,0.508c31.123,5.156,38.308-18.807,38.308-18.807c-6.477,9.329-19.02,13.779-32.405,10.305
	c-0.595-0.156-1.181-0.327-1.763-0.51c-0.178-0.054-0.353-0.112-0.53-0.171c-0.414-0.134-0.825-0.276-1.233-0.425
	c-0.187-0.068-0.374-0.137-0.557-0.208c-0.447-0.171-0.889-0.349-1.327-0.535c-0.12-0.051-0.24-0.098-0.357-0.151
	c-0.549-0.239-1.09-0.491-1.624-0.754c-0.275-0.134-0.544-0.276-0.814-0.415c-0.156-0.081-0.313-0.161-0.47-0.242
	c-0.347-0.188-0.691-0.383-1.03-0.581c-0.081-0.046-0.165-0.09-0.247-0.139c-0.421-0.247-0.836-0.5-1.248-0.762
	c-0.127-0.081-0.249-0.168-0.376-0.251c-0.271-0.176-0.542-0.354-0.808-0.535c-0.574-0.396-1.132-0.811-1.682-1.23
	c-0.127-0.1-0.254-0.198-0.378-0.298c-5.859-4.626-10.503-10.947-12.711-18.115c-2.314-7.434-1.815-15.779,2.194-22.551"/>
<path fill="#FFFFFF" d="M53.613,12.875c-3.553,5.229-3.902,11.724-1.437,17.5c2.6,6.13,7.928,10.94,14.147,13.22
	c0.256,0.096,0.513,0.181,0.772,0.269c0.114,0.035,0.226,0.074,0.341,0.107c0.366,0.115,0.73,0.249,1.108,0.32
	c17.185,3.32,21.846-8.819,23.087-10.605c-4.083,5.879-10.945,7.29-19.364,5.247c-0.665-0.162-1.396-0.402-2.037-0.629
	c-0.822-0.293-1.632-0.627-2.419-1.005c-1.495-0.718-2.92-1.59-4.241-2.588c-7.534-5.716-12.214-16.621-7.298-25.502"/>
<path fill="#FFFFFF" d="M247.16,114.73l-4.954,11.281h-5.469l0.448-10.251l-4.026,10.251h-5.295l-0.139-11.281l0.585-2.786h3.75
	l-0.723,11.144l4.163-11.144h5.228l-0.378,11.282l4.128-11.282h3.267L247.16,114.73L247.16,114.73z"/>
<path fill="#FFFFFF" d="M255.79,118.07c0.482-2.203,0.344-2.615-0.791-2.615h-1.72l-1.101,5.161l-1.686,5.397h-3.198l2.613-12.243
	l0.38-1.79h2.923l0.378,0.825c0,0,1.686-0.996,3.335-0.996c3.51,0,3.235,2.646,2.477,6.26L255.79,118.07L255.79,118.07z"/>
<path fill="#FFFFFF" d="M266.18,110.189c-1.408,0-2.303-0.412-1.96-2.131c0.378-1.721,1.479-2.134,2.854-2.134
	c1.377,0,2.305,0.413,1.927,2.134C268.656,109.743,267.557,110.189,266.18,110.189L266.18,110.189z M264.668,126.014h-3.167
	l0.62-5.504l1.102-5.09l-2.201-0.483l0.619-2.991h6.018L264.668,126.014L264.668,126.014z"/>
<path fill="#FFFFFF" d="M278.391,114.93l-3.955,0.484l-1.137,5.365c-0.311,1.48-0.311,1.893,0.998,1.893h2.648l-0.551,2.82
	c0,0-2.406,0.723-3.44,0.723c-4.059,0-4.024-2.236-3.301-5.574l1.101-5.262l-2.201-0.48l0.652-2.993h2.307l1.307-3.545h3.131
	l-0.759,3.545h3.853L278.391,114.93L278.391,114.93z"/>
<path fill="#FFFFFF" d="M286.609,115.109c-1.855,0-2.82,0.965-3.197,2.684l5.297-0.447
	C288.949,116.177,288.709,115.109,286.609,115.109L286.609,115.109z M282.896,120.337c-0.242,1.722,0.412,2.305,2.612,2.305h5.537
	l-0.55,2.614c0,0-3.336,0.928-5.813,0.928c-6.157,0-6.227-3.471-5.435-7.188c0.791-3.646,2.201-7.256,8.151-7.256
	c5.745,0,6.021,3.473,4.609,8.597H282.896L282.896,120.337z"/>
<path fill="#FFFFFF" d="M304.63,126.01h-3.163l0.619-5.503l2.236-10.456l-2.203-0.516l0.654-2.993h6.021L304.63,126.01
	L304.63,126.01z"/>
<path fill="#FFFFFF" d="M316.06,115.109c-1.858,0-2.82,0.965-3.2,2.684l5.298-0.447C318.396,116.177,318.157,115.109,316.06,115.109
	L316.06,115.109z M312.344,120.337c-0.24,1.722,0.414,2.305,2.614,2.305h5.538l-0.551,2.614c0,0-3.337,0.928-5.814,0.928
	c-6.157,0-6.224-3.471-5.433-7.188c0.792-3.646,2.202-7.256,8.151-7.256c5.745,0,6.02,3.473,4.61,8.597H312.344L312.344,120.337z"/>
<path fill="#FFFFFF" d="M335.97,115.28c0,0-4.024,0.034-5.124,0.034c-2.34,0-2.581,0.721-2.752,1.477l-0.139,0.688l7.43,0.552
	c0,0,0.034,2.373-0.275,3.714c-0.447,2.236-2.752,4.505-6.913,4.505c-2.065,0-5.401-0.789-5.401-0.789l0.585-2.717h5.125
	c2.271,0,2.581-0.621,2.72-1.238l0.171-0.894l-7.292-0.552c0,0-0.274-1.824,0.103-3.645c0.552-2.479,2.819-4.609,6.982-4.609
	c2.064,0,5.4,0.754,5.4,0.754L335.97,115.28L335.97,115.28z"/>
<path fill="#FFFFFF" d="M349.8,115.28c0,0-4.023,0.034-5.124,0.034c-2.339,0-2.58,0.721-2.752,1.477l-0.139,0.688l7.432,0.552
	c0,0,0.034,2.373-0.276,3.714c-0.446,2.236-2.751,4.505-6.914,4.505c-2.063,0-5.4-0.789-5.4-0.789l0.585-2.717h5.126
	c2.269,0,2.579-0.621,2.718-1.238l0.171-0.894l-7.292-0.552c0,0-0.274-1.824,0.103-3.645c0.552-2.479,2.819-4.609,6.983-4.609
	c2.063,0,5.399,0.754,5.399,0.754L349.8,115.28L349.8,115.28z"/>
<path fill="#FFFFFF" d="M354.13,128.25h-2.75l0.103-2.065c-0.999-0.065-1.514-0.788-1.273-1.995
	c0.379-1.719,1.445-2.131,2.855-2.131c1.376,0,2.302,0.412,1.926,2.131L354.13,128.25L354.13,128.25z"/>
<path fill="#FFFFFF" d="M372.53,115.42c-2.063,0-2.784,1.238-3.267,3.508c-0.482,2.271-0.345,3.611,1.719,3.611h2.855l1.583-7.119
	H372.53z M377.243,124.189l-0.38,1.824l-2.887-0.035l-0.414-0.893c0,0-2.546,1.098-4.264,1.098c-4.404,0-4.61-3.61-3.819-7.256
	c0.791-3.715,2.511-7.224,6.88-7.224c1.583,0,3.714,0.791,3.714,0.791l1.755-5.95h3.165L377.243,124.189L377.243,124.189z"/>
<path fill="#FFFFFF" d="M388.63,115.28c-2.682,0-3.544,1.511-4.024,3.713c-0.447,2.236-0.239,3.75,2.407,3.75
	c2.753,0,3.579-1.479,4.059-3.75C391.555,116.859,391.416,115.28,388.63,115.28L388.63,115.28z M386.292,126.218
	c-5.676,0-6.124-3.542-5.367-7.224c0.792-3.68,2.787-7.188,8.463-7.188c5.64,0,6.157,3.508,5.364,7.188
	C393.962,122.744,391.967,126.218,386.292,126.218z"/>
<path fill="#FFFFFF" d="M418.49,126.01l0.62-5.435l0.309-1.548c0.448-2.063,0.723-3.576-1.445-3.576h-1.685
	c0.069,1.066-0.138,2.271-0.413,3.542l-1.478,7.017h-3.2l0.619-5.435l0.309-1.548c0.448-2.063,0.722-3.576-1.442-3.576h-1.377
	l-2.271,10.559h-3.682l2.993-14.066h2.89l0.446,0.859c0,0,1.962-1.033,3.544-1.033c1.203,0,2.099,0.552,2.408,1.238
	c0.688-0.379,2.649-1.238,4.061-1.238c4.399,0,4.264,3.576,3.472,7.225l-1.479,7.016H418.49L418.49,126.01z"/>
<path fill="#FFFFFF" d="M433.11,115.28c-2.685,0-3.544,1.511-4.025,3.713c-0.446,2.236-0.239,3.75,2.407,3.75
	c2.752,0,3.579-1.479,4.061-3.75C436.033,116.859,435.896,115.28,433.11,115.28z M430.771,126.218c-5.678,0-6.123-3.542-5.366-7.224
	c0.791-3.68,2.785-7.188,8.462-7.188c5.642,0,6.157,3.508,5.364,7.188C438.442,122.744,436.446,126.218,430.771,126.218z"/>
<path fill="#FFFFFF" d="M448.79,118.07c0.48-2.203,0.344-2.615-0.79-2.615h-1.721l-1.102,5.161l-1.686,5.397h-3.198l2.613-12.243
	l0.38-1.79h2.924l0.377,0.825c0,0,1.686-0.996,3.339-0.996c3.507,0,3.23,2.646,2.474,6.26L448.79,118.07L448.79,118.07z"/>
<path fill="#FFFFFF" d="M461.11,115.109c-1.855,0-2.82,0.965-3.197,2.684l5.294-0.447
	C463.45,116.177,463.207,115.109,461.11,115.109L461.11,115.109z M457.396,120.337c-0.239,1.722,0.412,2.305,2.613,2.305h5.538
	l-0.549,2.614c0,0-3.338,0.928-5.813,0.928c-6.157,0-6.226-3.471-5.437-7.188c0.792-3.646,2.203-7.256,8.153-7.256
	c5.743,0,6.021,3.473,4.609,8.597H457.396L457.396,120.337z"/>
<path fill="#FFFFFF" d="M469.6,126.22c-1.445,0-2.337-0.412-1.959-2.097c0.342-1.724,1.409-2.134,2.855-2.134
	c1.34,0,2.268,0.41,1.926,2.134C472.041,125.773,470.942,126.22,469.6,126.22z"/>
</svg>
