<?xml version="1.0" encoding="utf-8"?>
<!-- Generator: Adobe Illustrator 15.0.0, SVG Export Plug-In . SVG Version: 6.00 Build 0)  -->
<!DOCTYPE svg PUBLIC "-//W3C//DTD SVG 1.1//EN" "http://www.w3.org/Graphics/SVG/1.1/DTD/svg11.dtd">
<svg version="1.1" id="Layer_1" xmlns="http://www.w3.org/2000/svg" xmlns:xlink="http://www.w3.org/1999/xlink" x="0px" y="0px"
	 width="32px" height="32px" viewBox="0 0 32 32" enable-background="new 0 0 32 32" xml:space="preserve">
<path fill="#FFFFFF" d="M16,32c8.837,0,16-7.163,16-16S24.837,0,16,0S0,7.163,0,16S7.163,32,16,32z M16,3c7.18,0,13,5.82,13,13
	c0,7.18-5.82,13-13,13C8.82,29,3,23.18,3,16C3,8.82,8.82,3,16,3z M16,18.711c3.623,0,7.07-0.963,10-2.654
	c-0.455,5.576-4.785,9.942-10,9.942s-9.544-4.371-10-9.947C8.93,17.743,12.377,18.71,16,18.711L16,18.711z M8,11
	c0-1.657,0.895-3,2-3s2,1.343,2,3s-0.895,3-2,3S8,12.657,8,11z M20,11c0-1.657,0.895-3,2-3s2,1.343,2,3s-0.895,3-2,3
	S20,12.657,20,11z"/>
</svg>
