<?xml version="1.0" encoding="utf-8"?>
<!-- Generator: Adobe Illustrator 15.0.0, SVG Export Plug-In . SVG Version: 6.00 Build 0)  -->
<!DOCTYPE svg PUBLIC "-//W3C//DTD SVG 1.1//EN" "http://www.w3.org/Graphics/SVG/1.1/DTD/svg11.dtd">
<svg version="1.1" id="Layer_1" xmlns="http://www.w3.org/2000/svg" xmlns:xlink="http://www.w3.org/1999/xlink" x="0px" y="0px"
	 width="32px" height="32px" viewBox="0 0 32 32" enable-background="new 0 0 32 32" xml:space="preserve">
<path fill="#1A1A1A" d="M32,6.076c-1.177,0.522-2.443,0.875-3.771,1.034c1.355-0.813,2.396-2.099,2.889-3.632
	c-1.27,0.752-2.676,1.299-4.169,1.593c-1.198-1.276-2.904-2.073-4.794-2.073c-3.625,0-6.563,2.939-6.563,6.565
	c0,0.515,0.058,1.016,0.17,1.496c-5.456-0.274-10.294-2.888-13.532-6.86c-0.566,0.97-0.89,2.097-0.89,3.301
	c0,2.278,1.159,4.287,2.921,5.465c-1.076-0.034-2.088-0.329-2.974-0.821c-0.001,0.027-0.001,0.055-0.001,0.083
	c0,3.181,2.263,5.833,5.266,6.437c-0.551,0.15-1.131,0.23-1.73,0.23c-0.423,0-0.834-0.041-1.235-0.119
	c0.835,2.607,3.26,4.507,6.133,4.56c-2.247,1.761-5.078,2.81-8.154,2.81c-0.53,0-1.052-0.029-1.566-0.092
	c2.905,1.863,6.356,2.95,10.064,2.95c12.076,0,18.679-10.004,18.679-18.68c0-0.285-0.006-0.568-0.02-0.849
	C30.006,8.548,31.119,7.392,32,6.076L32,6.076z"/>
</svg>
