<?xml version="1.0" encoding="utf-8"?>
<!-- Generator: Adobe Illustrator 15.0.0, SVG Export Plug-In . SVG Version: 6.00 Build 0)  -->
<!DOCTYPE svg PUBLIC "-//W3C//DTD SVG 1.1//EN" "http://www.w3.org/Graphics/SVG/1.1/DTD/svg11.dtd">
<svg version="1.1" id="Layer_1" xmlns="http://www.w3.org/2000/svg" xmlns:xlink="http://www.w3.org/1999/xlink" x="0px" y="0px"
	 width="522.477px" height="72px" viewBox="0 0 522.477 72" enable-background="new 0 0 522.477 72" xml:space="preserve">
<g>
	<path fill="#58C1A4" d="M188.435,35.446c0,11.5-17.433,11.5-17.433,0C171.003,23.945,188.435,23.945,188.435,35.446z"/>
</g>
<g>
	<path fill="#1A1A1A" d="M33.254,9.434h9.754v51.802h-6.06v0.074L9.755,26.356v34.88H0V9.507h7.907l25.347,32.072V9.434z"/>
	<path fill="#1A1A1A" d="M55.551,61.236V9.507h9.682v51.729H55.551z"/>
	<path fill="#1A1A1A" d="M120.035,54.732c-5.321,5.248-12.193,7.687-19.657,7.687c-19.213,0-27.342-13.228-27.416-26.678
		c-0.073-13.523,8.721-27.268,27.416-27.268c7.021,0,13.671,2.66,18.992,7.907l-6.503,6.282c-3.399-3.326-7.98-4.877-12.489-4.877
		c-12.488,0-17.883,9.311-17.809,17.957c0.074,8.572,5.025,17.515,17.809,17.515c4.509,0,9.607-1.848,13.006-5.247L120.035,54.732z"
		/>
	<path fill="#1A1A1A" d="M167.634,9.803l-22.981,24.756l24.904,26.085v0.592H157.51l-21.651-22.909v22.909h-9.754V9.507h9.754
		v21.874l19.657-21.874h12.118V9.803z"/>
	<path fill="#1A1A1A" d="M210.149,9.507V52.22h26.604v9.017h-36.357V9.507H210.149z"/>
	<path fill="#1A1A1A" d="M283.726,61.236h-38.725c0-17.219,0-34.511,0-51.729h38.725v9.459h-29.043v11.898h28.008v9.09h-28.008
		V51.63h29.043V61.236z"/>
	<path fill="#1A1A1A" d="M336.867,23.77l-16.849,22.464h-1.922l-16.479-22.54v37.616h-9.754V9.582h11.232l16.184,22.243
		l16.185-22.243h11.157v51.729h-9.754V23.77L336.867,23.77z"/>
	<path fill="#1A1A1A" d="M400.912,23.77l-16.849,22.464h-1.922l-16.479-22.54v37.616h-9.754V9.582h11.232l16.184,22.243
		l16.185-22.243h11.157v51.729h-9.754V23.77L400.912,23.77z"/>
	<path fill="#1A1A1A" d="M470.72,35.667c-0.147,13.375-8.352,26.751-26.529,26.751s-26.604-13.08-26.604-26.678
		c0-13.597,8.72-27.268,26.604-27.268C462.001,8.473,470.869,22.144,470.72,35.667z M427.194,35.889
		c0.222,8.5,4.804,17.587,16.997,17.587s16.774-9.164,16.923-17.662c0.147-8.72-4.729-18.475-16.923-18.475
		S426.972,27.169,427.194,35.889z"/>
	<path fill="#1A1A1A" d="M509.93,9.434h9.755v51.802h-6.06v0.074L486.43,26.356v34.88h-9.754V9.507h7.906l25.348,32.072V9.434z"/>
</g>
<g>
	<path fill="#58C1A4" d="M188.435,35.446c0,11.5-17.433,11.5-17.433,0C171.003,23.945,188.435,23.945,188.435,35.446z"/>
</g>
</svg>
